<?xml version="1.0" encoding="iso-8859-1"?>
<!-- Uploaded to: SVG Repo, www.svgrepo.com, Generator: SVG Repo Mixer Tools -->
<svg height="800px" width="800px" version="1.1" id="Layer_1" xmlns="http://www.w3.org/2000/svg" xmlns:xlink="http://www.w3.org/1999/xlink" 
	 viewBox="0 0 512.379 512.379" xml:space="preserve">
<path style="fill:#BDC3C7;" d="M212.052,406.448c0-2.648,0-5.297,0-7.945c0.883-5.297-3.531-9.71-8.828-9.71H61.983
	c-5.297,0-8.828,3.531-8.828,8.828v17.655c0,5.297,3.531,8.828,8.828,8.828h141.241c5.297,0,8.828-3.531,8.828-8.828V406.448z"/>
<path style="fill:#38454F;" d="M485.707,512.379H26.672c-5.297,0-8.828-3.531-8.828-8.828v-17.655c0-5.297,3.531-8.828,8.828-8.828
	h459.034c5.297,0,8.828,3.531,8.828,8.828v17.655C494.534,508.848,491.003,512.379,485.707,512.379"/>
<path style="fill:#546A79;" d="M370.948,477.069l-27.366-91.807C333.872,350.834,302.093,327,265.9,327l0,0
	c-45.021,0-81.214,36.193-81.214,81.214v68.855H370.948z"/>
<g>
	<path style="fill:#ECF0F1;" d="M309.155,406.448c0-24.717-19.421-44.138-44.138-44.138s-44.138,19.421-44.138,44.138
		s19.421,44.138,44.138,44.138S309.155,431.165,309.155,406.448"/>
	<path style="fill:#ECF0F1;" d="M362.121,168.103c0-29.131-23.835-52.966-52.966-52.966c-29.131,0-52.966,23.834-52.966,52.966
		s23.835,52.966,52.966,52.966C338.286,221.069,362.121,197.234,362.121,168.103"/>
</g>
<polygon style="fill:#38454F;" points="341.817,85.124 297.679,55.11 311.803,33.041 355.941,62.172 "/>
<path style="fill:#95A5A5;" d="M355.941,62.172l-44.138-30.014c-7.945-5.297-9.71-16.772-4.414-24.717l0,0
	c5.297-7.945,16.772-9.71,24.717-4.414l44.138,30.014c7.945,5.297,10.593,15.89,4.414,24.717l0,0
	C375.362,65.703,363.886,67.469,355.941,62.172"/>
<polygon style="fill:#2D393F;" points="217.348,267.855 174.093,237.841 178.507,199 251.776,248.434 "/>
<path style="fill:#38454F;" d="M190.866,291.69l-29.131-19.421c-4.414-2.648-5.297-7.945-2.648-12.359l15.007-22.069l44.138,30.014
	l-15.007,22.069C199.693,293.455,194.397,294.338,190.866,291.69"/>
<g>
	<path style="fill:#546A79;" d="M163.5,316.407l-15.007-9.71c-4.414-2.648-5.297-7.945-2.648-12.359l15.007-22.069l29.131,19.421
		l-15.007,22.069C173.21,318.172,167.031,319.055,163.5,316.407"/>
	<path style="fill:#546A79;" d="M256.19,168.103c0-29.131,23.835-52.966,52.966-52.966c10.593,0,19.421,2.648,27.365,7.945
		l19.421-28.248L282.672,45.4L178.507,199l73.269,49.434l25.6-37.959C265.017,200.766,256.19,185.759,256.19,168.103"/>
</g>
<g>
	<path style="fill:#BDBFC0;" d="M291.5,194.586c-2.648,0-4.414-0.883-6.179-2.648c-3.531-3.531-3.531-8.828,0-12.359l35.31-35.31
		c3.531-3.531,8.828-3.531,12.359,0c3.531,3.531,3.531,8.828,0,12.359l-35.31,35.31C295.914,193.703,294.148,194.586,291.5,194.586"
		/>
	<path style="fill:#BDBFC0;" d="M326.81,194.586c-2.648,0-4.414-0.883-6.179-2.648l-35.31-35.31c-3.531-3.531-3.531-8.828,0-12.359
		c3.531-3.531,8.828-3.531,12.359,0l35.31,35.31c3.531,3.531,3.531,8.828,0,12.359C331.224,193.703,329.459,194.586,326.81,194.586"
		/>
	<path style="fill:#BDBFC0;" d="M252.659,427.634c-2.648,0-4.414-0.883-6.179-2.648c-3.531-3.531-3.531-8.828,0-12.359
		l24.717-24.717c3.531-3.531,8.828-3.531,12.359,0c3.531,3.531,3.531,8.828,0,12.359l-24.717,24.717
		C257.072,426.752,254.424,427.634,252.659,427.634"/>
	<path style="fill:#BDBFC0;" d="M277.376,427.634c-2.648,0-4.414-0.883-6.179-2.648l-24.717-24.717
		c-3.531-3.531-3.531-8.828,0-12.359c3.531-3.531,8.828-3.531,12.359,0l24.717,24.717c3.531,3.531,3.531,8.828,0,12.359
		C281.79,426.752,280.024,427.634,277.376,427.634"/>
</g>
<path style="fill:#546A79;" d="M317.1,344.655c12.359,9.71,22.069,23.835,26.483,39.724l7.945,28.248
	c34.428-32.662,54.731-78.566,54.731-129.766c0-45.903-16.772-87.393-44.138-120.055c0,1.766,0,3.531,0,5.297
	c0,26.483-19.421,48.552-45.021,52.083c11.476,17.655,18.538,39.724,18.538,62.676S328.576,327,317.1,344.655"/>
</svg>