<?xml version="1.0" encoding="iso-8859-1"?>
<!-- Uploaded to: SVG Repo, www.svgrepo.com, Generator: SVG Repo Mixer Tools -->
<svg height="800px" width="800px" version="1.1" id="Layer_1" xmlns="http://www.w3.org/2000/svg" xmlns:xlink="http://www.w3.org/1999/xlink" 
	 viewBox="0 0 512 512" xml:space="preserve">
<g>
	<path style="fill:#DD342E;" d="M490.337,423.291c-2.136-1.121-4.264-2.225-6.391-3.31
		c-49.337-25.176-102.665-41.481-157.325-50.344c-0.671-0.212-1.227-0.406-1.871-0.609c-7.23,31.32-35.231,54.696-68.749,54.696
		c-33.457,0-61.414-23.296-68.705-54.528c-0.68,0.15-1.218,0.291-1.916,0.441c-54.66,8.863-107.988,25.167-157.325,50.344
		c-2.119,1.086-4.255,2.189-6.391,3.31C8.377,430.274,0,444.018,0,459.034V512h512v-52.966
		C512,444.018,503.623,430.274,490.337,423.291"/>
	<path style="fill:#4897F7;" d="M406.07,110.893c0,25.044-22.616,44.023-47.281,39.671c-68.988-12.42-138.549-12.412-205.577,0
		c-24.664,4.352-47.281-14.627-47.281-39.671C105.932,49.647,155.578,0,216.824,0h39.177h39.177
		C356.423,0,406.07,49.647,406.07,110.893"/>
	<path style="fill:#397ABC;" d="M358.788,150.561c23.384,4.131,44.897-12.729,47.069-35.831l-47.069-8.307
		c-68.988-12.42-138.549-12.412-205.577,0l-47.06,8.307c2.172,23.102,23.676,39.962,47.06,35.831
		C220.239,138.15,289.8,138.141,358.788,150.561"/>
	<path style="fill:#FABA81;" d="M358.788,150.561c-68.988-12.42-138.549-12.412-205.577,0c-10.858,1.916-21.319-0.697-29.625-6.347
		v49.991c0,78.001,59.286,158.897,132.414,158.897s132.414-80.896,132.414-158.897v-49.991
		C380.106,149.864,369.645,152.477,358.788,150.561"/>
	<path style="fill:#397ABC;" d="M423.725,511.998H88.277v-17.655c0-19.5,15.81-35.31,35.31-35.31h264.828
		c19.5,0,35.31,15.81,35.31,35.31V511.998z"/>
	<path style="fill:#CE905D;" d="M256.001,353.101c-25.997,0-50.167-10.355-70.621-27.03v27.03c0,39,31.62,70.621,70.621,70.621
		s70.621-31.62,70.621-70.621v-27.03C306.168,342.746,281.998,353.101,256.001,353.101"/>
	<polygon style="fill:#FECA09;" points="211.859,61.791 300.134,61.791 300.134,26.481 211.859,26.481 	"/>
	<g>
		<path style="fill:#4897F7;" d="M167.725,485.515c0,4.873-3.955,8.828-8.828,8.828s-8.828-3.955-8.828-8.828
			s3.955-8.828,8.828-8.828S167.725,480.642,167.725,485.515"/>
		<path style="fill:#4897F7;" d="M361.932,485.515c0,4.873-3.955,8.828-8.828,8.828s-8.828-3.955-8.828-8.828
			s3.955-8.828,8.828-8.828S361.932,480.642,361.932,485.515"/>
		<path style="fill:#4897F7;" d="M370.693,378.559l-44.076,80.472h52.966l54.298-61.14
			C413.26,390.123,392.135,383.741,370.693,378.559"/>
		<path style="fill:#4897F7;" d="M141.301,378.506l44.076,80.525h-52.965l-54.316-61.122
			C98.707,390.141,119.858,383.688,141.301,378.506"/>
	</g>
</g>
</svg>